<svg width="68" height="68" viewBox="0 0 68 68" fill="none" xmlns="http://www.w3.org/2000/svg">
<g clip-path="url(#clip0_291_2794)">
<path d="M60.2355 53.9228C59.9035 53.7438 52.0214 49.5566 44.4231 51.9514C40.7946 53.0948 37.9713 55.5057 35.9926 57.7495V49.9027H39.3129C41.8763 49.9027 43.9613 47.8129 43.9613 45.2449V41.8167H24.0394V45.2449C24.0394 47.8129 26.1245 49.9027 28.6879 49.9027H32.0082V57.6794C30.0326 55.4559 27.2311 53.0829 23.64 51.9514C16.0416 49.5566 8.15953 53.7433 7.82801 53.9228C6.87861 54.4359 6.50975 55.6126 6.9943 56.577C7.16395 56.9147 11.235 64.8684 18.8338 67.2627C23.1118 68.6116 27.8843 67.9797 32.085 66.415C32.6323 68.3553 35.3944 68.3418 35.9215 66.3937C40.1072 67.9636 44.9123 68.6235 49.2297 67.2627C56.8286 64.8684 60.8991 56.9147 61.0687 56.577C61.5533 55.6126 61.1844 54.4359 60.2355 53.9228Z" fill="url(#paint0_linear_291_2794)"/>
<path d="M34 7.98432C35.1004 7.98432 35.9922 7.09094 35.9922 5.9885V1.99582C35.9922 0.893891 35.1004 0 34 0C32.8996 0 32.0078 0.893891 32.0078 1.99582V5.9885C32.0078 7.09094 32.8996 7.98432 34 7.98432Z" fill="url(#paint1_linear_291_2794)"/>
<path d="M15.6869 14.4154C16.4651 15.1952 17.7263 15.1952 18.5045 14.4154C19.2821 13.6362 19.2821 12.3719 18.5045 11.5927L15.6869 8.76987C14.9092 7.99012 13.6475 7.99012 12.8698 8.76987C12.0916 9.54911 12.0916 10.8129 12.8698 11.5927L15.6869 14.4154Z" fill="url(#paint2_linear_291_2794)"/>
<path d="M12.0859 29.9414C12.0859 28.8389 11.1941 27.9456 10.0938 27.9456H6.10938C5.009 27.9456 4.11719 28.8389 4.11719 29.9414C4.11719 31.0438 5.009 31.9377 6.10938 31.9377H10.0938C11.1941 31.9377 12.0859 31.0438 12.0859 29.9414Z" fill="url(#paint3_linear_291_2794)"/>
<path d="M61.8906 27.9456H57.9063C56.8059 27.9456 55.9141 28.8389 55.9141 29.9414C55.9141 31.0438 56.8059 31.9377 57.9063 31.9377H61.8906C62.991 31.9377 63.8828 31.0438 63.8828 29.9414C63.8828 28.8389 62.991 27.9456 61.8906 27.9456Z" fill="url(#paint4_linear_291_2794)"/>
<path d="M52.313 14.4154L55.13 11.5927C55.9082 10.8129 55.9082 9.54911 55.13 8.76987C54.3524 7.99012 53.0906 7.99012 52.313 8.76987L49.4954 11.5927C48.7177 12.3719 48.7177 13.6362 49.4954 14.4154C50.2736 15.1952 51.5348 15.1952 52.313 14.4154Z" fill="url(#paint5_linear_291_2794)"/>
<path d="M21.4922 37.8247H32.0078V30.7685L28.607 27.361C27.8288 26.5813 27.8288 25.3175 28.607 24.5377C29.3847 23.7585 30.6464 23.7585 31.4241 24.5377L33.9999 27.1187L36.5758 24.5382C37.3535 23.7585 38.6152 23.7585 39.3929 24.5382C40.1711 25.3175 40.1711 26.5813 39.3929 27.361L35.9921 30.7685V37.8247H46.5082C54.8017 27.332 47.1992 11.9766 33.9999 11.9766C20.7675 11.9766 13.2215 27.3621 21.4922 37.8247Z" fill="url(#paint6_linear_291_2794)"/>
</g>
<defs>
<linearGradient id="paint0_linear_291_2794" x1="27.8437" y1="38.1074" x2="43.8784" y2="61.1468" gradientUnits="userSpaceOnUse">
<stop stop-color="#1439E5"/>
<stop offset="1" stop-color="#1474E5"/>
</linearGradient>
<linearGradient id="paint1_linear_291_2794" x1="33.5476" y1="-1.13111" x2="36.759" y2="-0.0248927" gradientUnits="userSpaceOnUse">
<stop stop-color="#1439E5"/>
<stop offset="1" stop-color="#1474E5"/>
</linearGradient>
<linearGradient id="paint2_linear_291_2794" x1="14.9147" y1="7.21957" x2="19.0734" y2="10.0846" gradientUnits="userSpaceOnUse">
<stop stop-color="#1439E5"/>
<stop offset="1" stop-color="#1474E5"/>
</linearGradient>
<linearGradient id="paint3_linear_291_2794" x1="7.19681" y1="27.38" x2="9.67553" y2="30.7954" gradientUnits="userSpaceOnUse">
<stop stop-color="#1439E5"/>
<stop offset="1" stop-color="#1474E5"/>
</linearGradient>
<linearGradient id="paint4_linear_291_2794" x1="58.9937" y1="27.38" x2="61.4724" y2="30.7954" gradientUnits="userSpaceOnUse">
<stop stop-color="#1439E5"/>
<stop offset="1" stop-color="#1474E5"/>
</linearGradient>
<linearGradient id="paint5_linear_291_2794" x1="51.5407" y1="7.21957" x2="55.6994" y2="10.0846" gradientUnits="userSpaceOnUse">
<stop stop-color="#1439E5"/>
<stop offset="1" stop-color="#1474E5"/>
</linearGradient>
<linearGradient id="paint6_linear_291_2794" x1="30.3776" y1="8.31475" x2="47.0458" y2="22.5254" gradientUnits="userSpaceOnUse">
<stop stop-color="#1439E5"/>
<stop offset="1" stop-color="#1474E5"/>
</linearGradient>
<clipPath id="clip0_291_2794">
<rect width="68" height="68" fill="white"/>
</clipPath>
</defs>
</svg>
